<?xml version="1.0" encoding="UTF-8"?>
<svg xmlns="http://www.w3.org/2000/svg" version="1.1" viewBox="0 0 358.7 126">
  <defs>
    <style>
      .cls-1 {
        fill: #fff;
      }
    </style>
  </defs>
  <!-- Generator: Adobe Illustrator 28.7.1, SVG Export Plug-In . SVG Version: 1.2.0 Build 142)  -->
  <g>
    <g id="Layer_1">
      <g>
        <rect class="cls-1" x="203" y="56.9" width="21" height="68"/>
        <path class="cls-1" d="M276.2,87.6c-3.1-1.4-6.9-2.7-11.5-4.1-2.4-.8-4.5-1.5-6.1-2.1-1.7-.6-3-1.3-3.9-2.2-1-.8-1.4-1.9-1.4-3.1s.5-2.1,1.6-3c1-.9,2.5-1.3,4.4-1.3s3.7.7,4.9,2c.9,1,1.5,2.2,2,3.6h20.7c-.5-4.1-1.8-7.8-4.1-11-2.3-3.3-5.5-5.9-9.5-7.8-4.1-1.9-8.8-2.8-14.2-2.8s-10.7.9-14.7,2.6c-4.1,1.7-7.1,4.1-9.2,7.1-2,3.1-3.1,6.5-3.1,10.3s1.1,7.6,3.2,10.3c2.1,2.7,4.7,4.8,7.7,6.3,3,1.5,6.8,3,11.3,4.4,2.5.9,4.6,1.7,6.3,2.4,1.7.7,3.1,1.5,4.1,2.5,1,1,1.5,2,1.5,3.3s-.6,2.4-1.7,3.3c-1.1.9-2.8,1.4-5.1,1.4s-4.3-.7-5.8-2c-1.1-.9-1.8-2.1-2.3-3.5h-20.7c.5,4.1,1.8,7.7,4,10.9,2.4,3.4,5.6,6.1,9.9,8.1,4.2,2,9.2,2.9,15,2.9s11.3-.9,15.5-2.7c4.2-1.8,7.4-4.3,9.5-7.5,2.1-3.2,3.1-6.9,3.1-11.2s-1.1-8-3.3-10.8c-2.2-2.7-4.9-4.8-7.9-6.2Z"/>
        <polygon class="cls-1" points="163.1 34.4 142.1 56.9 142.1 124.9 196.6 124.9 196.6 104.1 163.1 104.1 163.1 34.4"/>
        <polygon class="cls-1" points="334.9 90.6 356.9 56.9 333.4 56.9 315 85.2 315 34.4 294 56.9 294 124.9 315 124.9 315 96 335.2 124.9 358.7 124.9 334.9 90.6"/>
        <g>
          <polygon class="cls-1" points="55.2 0 42.7 20.7 83.8 88 49.4 124.9 78.5 124.9 110.5 90.6 55.2 0"/>
          <polygon class="cls-1" points="41.8 104.1 26.8 88 52 46.6 39.4 26 0 90.6 32 124.9 42.6 124.9 62.1 104.1 41.8 104.1"/>
        </g>
      </g>
    </g>
  </g>
</svg>